<svg xmlns="http://www.w3.org/2000/svg" width="1024" height="1024" viewBox="0 0 1024 1024" version="1.1"><path d="M 452.859 338.115 C 442.994 339.578, 435.613 345.288, 431.148 354.914 C 427.898 361.918, 427.580 373.469, 430.401 382 C 435.830 398.416, 448.864 416.462, 467.387 433.209 L 476.500 441.449 466 430.474 C 447.197 410.821, 435.157 392.251, 431.396 377.099 C 428.645 366.018, 431.261 354.806, 438.219 347.847 C 443.767 342.300, 448.387 340.500, 457.079 340.500 C 463.769 340.500, 465.232 340.855, 469.548 343.524 C 472.238 345.187, 475.802 348.488, 477.469 350.860 C 480.257 354.826, 480.500 355.842, 480.500 363.513 C 480.500 372.803, 479.249 375.504, 472.967 379.779 C 468.091 383.097, 465.149 383.538, 460.067 381.710 C 454.720 379.788, 453.777 380.153, 457.609 382.663 C 460.921 384.833, 467.494 384.836, 471.644 382.670 C 478.603 379.036, 483.263 370.947, 483.263 362.500 C 483.263 347.163, 468.998 335.722, 452.859 338.115 M 553.242 339.494 C 536.414 346.808, 531.487 368.076, 544.002 379.383 C 550.041 384.839, 558.834 386.315, 562.071 382.415 C 563.042 381.244, 562.726 381.199, 560.062 382.128 C 547.798 386.403, 535.712 370.416, 540.441 356.176 C 543.807 346.044, 552.139 340.500, 564 340.500 C 570.440 340.500, 572.183 340.902, 576.336 343.342 C 583.923 347.802, 589.761 357.214, 589.924 365.250 C 589.966 367.341, 590.503 369, 591.138 369 C 592.990 369, 591.277 358.481, 588.548 353.094 C 585.763 347.598, 580.413 342.547, 574.565 339.890 C 569.609 337.639, 558.006 337.424, 553.242 339.494 M 253 339.542 C 252.175 339.721, 249.778 340.149, 247.673 340.493 L 243.847 341.119 248.824 343.599 C 254.531 346.443, 261.851 353.827, 264.912 359.827 C 268.276 366.421, 269.750 373.739, 271.007 390.088 C 271.802 400.427, 272.990 408.196, 274.659 413.958 C 281.789 438.579, 298.929 456.274, 321.776 462.604 C 325.228 463.560, 327.905 464.603, 327.726 464.921 C 322.865 473.531, 321.626 477.874, 321.564 486.518 C 321.506 494.744, 321.786 496.117, 324.760 502.160 C 328.681 510.129, 333.980 515.154, 342.877 519.340 C 348.730 522.095, 350.748 522.501, 360.230 522.838 L 370.960 523.220 366.584 528.860 C 356.252 542.179, 352.574 556.734, 355.431 573 C 359.470 596.004, 375.532 613.126, 398.609 619.028 C 411.451 622.312, 425.708 621.104, 440.701 615.461 C 462.776 607.152, 482.992 583.988, 489.542 559.500 C 495.407 537.571, 490.373 508.277, 475.842 479.767 C 436.216 402.021, 347.855 343.311, 265 339.677 C 259.225 339.424, 253.825 339.363, 253 339.542 M 744 340.125 C 723.816 342.164, 697.855 349.264, 676.700 358.528 C 604.195 390.281, 540.899 460.029, 530.507 519.622 C 528.530 530.960, 528.572 548.178, 530.599 557.303 C 533.956 572.414, 545.950 592.771, 556.846 601.854 C 580.889 621.896, 609.595 626.368, 634.714 613.987 C 650.258 606.326, 660.674 592.844, 664.567 575.344 C 668.267 558.712, 663.364 539.596, 652.112 526.781 L 649.157 523.415 656.420 523.276 C 677.362 522.876, 691.341 513.903, 696.915 497.282 C 698.062 493.861, 699 489.010, 699 486.500 C 699 481.712, 695.910 471.144, 693.345 467.163 C 692.518 465.878, 691.989 464.713, 692.170 464.574 C 692.352 464.435, 695.425 463.530, 699 462.563 C 706.606 460.506, 717.750 454.629, 723.677 449.549 C 728.944 445.035, 736.354 435.223, 740.099 427.803 C 744.992 418.110, 747.990 405.817, 749.073 391 C 750.423 372.536, 751.416 367.664, 755.540 359.267 C 758.894 352.439, 764.136 346.925, 771.621 342.352 C 776.552 339.340, 762.766 338.228, 744 340.125 M 265.640 348.150 C 272.230 355.387, 276.321 369.378, 277.946 390.234 C 279.970 416.227, 284.753 427.893, 299.227 442.144 C 307.259 450.052, 316.607 454.543, 330.873 457.347 L 342.063 459.546 338.756 462.752 C 336.936 464.516, 333.921 468.478, 332.054 471.558 C 329.168 476.320, 328.593 478.312, 328.214 484.873 C 327.841 491.309, 328.140 493.455, 330.019 497.823 C 332.871 504.453, 340.199 511.160, 347.798 514.095 C 355.611 517.112, 371.939 517.038, 383.500 513.933 C 402.224 508.904, 403.088 508.781, 416 509.299 C 435.606 510.085, 447.504 513.970, 464.388 525.098 C 468.727 527.957, 475.365 533.209, 479.138 536.769 L 486 543.242 486 538.752 C 486 527.466, 480.202 504.918, 473.368 489.623 C 461.222 462.444, 435.432 429.818, 407.500 406.296 C 387.161 389.169, 358.325 371.777, 333.405 361.606 C 314.197 353.767, 290.829 348.049, 271.500 346.459 L 263.500 345.801 265.640 348.150 M 742 347.105 C 705.747 351.194, 664.746 368.285, 627.870 394.680 C 592.102 420.281, 562.221 455.249, 547.576 488.645 C 539.241 507.651, 535 524.028, 535 537.212 L 535 543.162 542.750 536.233 C 552.383 527.620, 560.694 522.007, 571.294 516.954 C 584.524 510.647, 590.233 509.494, 608 509.541 C 622.190 509.578, 624.198 509.814, 631.757 512.336 C 664.659 523.314, 692.294 511.721, 692.294 486.941 C 692.294 478.382, 689.147 471.453, 681.930 464.121 C 676.925 459.036, 676.909 459, 679.695 458.987 C 685.988 458.957, 701.862 454.876, 708.563 451.565 C 717.205 447.295, 726.505 438.382, 731.966 429.135 C 738.028 418.871, 740.831 409.162, 742.014 394.339 C 742.577 387.278, 743.478 378.210, 744.015 374.190 C 745.107 366.021, 749.952 353.399, 753.710 348.932 L 756.178 346 752.839 346.130 C 751.003 346.201, 746.125 346.640, 742 347.105 M 314.500 382.876 C 312.350 383.408, 314.475 383.782, 322 384.196 C 329.652 384.616, 334.670 385.513, 340.500 387.502 C 374.928 399.248, 423.639 436.653, 449.517 471.213 C 458.768 483.569, 461.189 486.150, 454.477 476.500 C 438.962 454.195, 419.218 434.368, 393 414.765 C 375.373 401.586, 351.948 388.907, 338.232 385.123 C 329.919 382.829, 318.898 381.786, 314.500 382.876 M 583.260 392.143 C 577.097 404.325, 568.716 415.785, 555.907 429.544 L 546.639 439.500 557.395 429 C 563.311 423.225, 571.061 414.675, 574.618 410 C 581.633 400.779, 589.408 386.313, 588.849 383.524 C 588.643 382.501, 586.344 386.046, 583.260 392.143 M 689 383.687 C 679.820 385.208, 660.021 393.813, 647 401.941 C 639.443 406.658, 640.401 407.481, 648.138 402.919 C 664.235 393.428, 683.763 385.481, 694.500 384.052 C 699.911 383.332, 700.058 383.255, 696 383.263 C 693.525 383.268, 690.375 383.459, 689 383.687 M 706.128 383.939 C 712.004 385.031, 714.541 386.352, 719.439 390.868 C 722.504 393.694, 723.035 393.946, 721.832 392 C 719.376 388.028, 711.736 383.810, 706.292 383.421 L 701.500 383.078 706.128 383.939 M 726.336 410 C 726.336 414.125, 726.513 415.813, 726.728 413.750 C 726.944 411.688, 726.944 408.313, 726.728 406.250 C 726.513 404.188, 726.336 405.875, 726.336 410 M 557.411 414.250 C 536.889 435.175, 519.208 457.929, 520.444 461.824 C 520.989 463.541, 519.900 466.571, 516.067 474 C 515.554 474.994, 513.437 475.600, 509.786 475.796 L 504.278 476.092 501.895 469.796 C 500.584 466.333, 499.509 462.292, 499.506 460.815 C 499.495 455.744, 477.696 428.576, 459.935 411.500 C 452.791 404.632, 452.825 404.688, 461.752 414.500 C 473.128 427.004, 482.813 438.629, 488.673 446.815 C 492.864 452.669, 493.077 453.258, 491.597 454.893 C 488.383 458.445, 490.627 464.981, 497.974 473.470 C 501.836 477.933, 502.445 479.392, 502.052 483.250 C 501.931 484.440, 502.615 485.032, 504.187 485.100 C 506.460 485.198, 506.456 485.212, 504.005 485.894 C 500.388 486.900, 500.183 489.751, 503.691 490.278 C 506.474 490.696, 506.471 490.702, 503.367 490.850 C 501.149 490.956, 500.080 491.584, 499.710 493 C 499.311 494.526, 499.698 495.024, 501.344 495.100 C 503.281 495.189, 503.246 495.269, 501 495.891 C 499.495 496.307, 498.376 497.436, 498.189 498.727 C 497.925 500.546, 498.457 500.932, 501.689 501.268 L 505.500 501.664 501.177 501.832 C 497.647 501.969, 496.914 502.321, 497.186 503.750 C 497.456 505.167, 498.943 505.608, 505.009 506.070 L 512.500 506.640 504.750 506.820 C 497.727 506.983, 497 507.188, 497 509 C 497 510.901, 497.667 511, 510.500 511 C 523.880 511, 524 510.980, 524 508.724 C 524 506.659, 523.616 506.484, 519.868 506.841 C 516.999 507.115, 515.948 506.894, 516.427 506.118 C 516.807 505.503, 518.704 505, 520.642 505 C 524.672 505, 524.856 502.976, 520.926 501.877 C 518.564 501.217, 518.559 501.197, 520.750 501.100 C 523.264 500.988, 523.625 499.804, 521.750 497.821 C 521.063 497.095, 520.500 495.379, 520.500 494.010 C 520.500 492.052, 519.858 491.382, 517.500 490.878 L 514.500 490.237 517.323 490.118 C 521.195 489.956, 520.564 486.748, 516.488 485.876 C 514.166 485.379, 514.002 485.210, 515.750 485.118 C 517.612 485.020, 518 484.422, 518 481.650 C 518 478.352, 521.634 472.174, 525.399 469.073 C 529.854 465.403, 531.739 456.745, 528.585 454.438 C 527.007 453.285, 527.359 452.495, 532.618 445.383 C 538.732 437.116, 552.637 420.710, 562.365 410.285 C 571.407 400.594, 568.602 402.840, 557.411 414.250 M 372.500 431.391 C 395.624 439.846, 420.122 455.644, 441.808 476.084 C 446.136 480.163, 450.762 484.343, 452.088 485.373 C 456.982 489.173, 435.259 468.641, 428.500 463.077 C 418.290 454.673, 403.854 444.971, 393 439.218 C 384.220 434.565, 367.399 427.934, 364.670 428.050 C 364.027 428.077, 367.550 429.581, 372.500 431.391 M 593.545 444.250 C 586.295 451.538, 577.508 461.325, 574.019 466 C 570.530 470.675, 567.243 475.063, 566.715 475.750 C 566.187 476.438, 565.973 477, 566.239 477 C 566.505 477, 569.360 473.512, 572.584 469.250 C 575.808 464.988, 585.177 454.637, 593.404 446.250 C 601.631 437.863, 607.995 431, 607.545 431 C 607.095 431, 600.795 436.962, 593.545 444.250 M 624.390 440.875 C 604.017 451.691, 583.253 468.518, 565.652 488.476 C 562.268 492.312, 566.475 488.485, 575 479.971 C 591.959 463.034, 607.877 450.889, 625.649 441.328 C 631.067 438.413, 635.050 436.030, 634.500 436.033 C 633.950 436.036, 629.400 438.215, 624.390 440.875 M 369.942 450.122 C 384.764 451.839, 402.174 458.370, 419.335 468.652 C 424.763 471.904, 439.482 482.763, 443.179 486.243 C 446.515 489.384, 456 497.106, 456 496.682 C 456 495.968, 437.339 480.001, 430.500 474.863 C 411.435 460.539, 381.948 448.653, 366.662 449.130 C 363.715 449.222, 364.673 449.511, 369.942 450.122 M 641.500 450.506 C 640.950 450.698, 637.864 451.589, 634.643 452.486 C 631.421 453.384, 628.967 454.300, 629.189 454.523 C 629.411 454.745, 631.822 454.252, 634.547 453.427 C 637.271 452.603, 641.750 451.547, 644.500 451.081 C 648.646 450.378, 648.902 450.227, 646 450.196 C 644.075 450.175, 642.050 450.315, 641.500 450.506 M 617 459.294 C 611.775 461.651, 604.350 465.618, 600.500 468.109 C 587.146 476.752, 568.894 491.128, 563.009 497.638 C 560.517 500.395, 561.089 500.046, 565.009 496.418 C 580.163 482.393, 603.033 466.686, 618 460.025 C 623.225 457.700, 627.688 455.618, 627.917 455.399 C 629.231 454.141, 625.380 455.515, 617 459.294 M 416 476.330 C 426.516 481.664, 440.720 490.546, 440.250 491.495 C 440.113 491.773, 440.056 492.225, 440.125 492.500 C 440.194 492.775, 440.306 493.412, 440.375 493.917 C 440.444 494.421, 440.804 495.137, 441.175 495.508 C 441.744 496.077, 441.592 493.627, 440.958 492 C 440.851 491.725, 440.810 491.180, 440.868 490.790 C 441.134 488.996, 409.930 470.996, 406.565 471.002 C 405.979 471.003, 410.225 473.401, 416 476.330 M 602 476.545 C 597.325 479.008, 592.375 481.972, 591 483.131 L 588.500 485.237 591.500 483.424 C 593.150 482.426, 598.550 479.456, 603.500 476.824 C 608.450 474.192, 612.050 472.045, 611.500 472.052 C 610.950 472.060, 606.675 474.082, 602 476.545 M 587 491 C 583.975 492.598, 581.950 493.906, 582.500 493.906 C 583.050 493.906, 585.975 492.598, 589 491 C 592.025 489.402, 594.050 488.094, 593.500 488.094 C 592.950 488.094, 590.025 489.402, 587 491 M 439 504.016 C 443.307 506.985, 452.150 511.709, 450.010 509.898 C 448.640 508.738, 445.265 506.708, 442.510 505.386 C 439.754 504.064, 438.175 503.448, 439 504.016 M 564.628 512.980 C 560.433 515.719, 557 518.185, 557 518.460 C 557 518.891, 571.736 509.597, 572.905 508.428 C 574.412 506.921, 571.222 508.676, 564.628 512.980 M 497 513.934 C 497 515.275, 497.842 515.995, 499.750 516.284 L 502.500 516.700 499.750 516.850 C 498.144 516.938, 497 517.577, 497 518.387 C 497 520.216, 500.231 520.563, 513.750 520.188 C 522.722 519.939, 525 519.584, 525 518.438 C 525 517.647, 524.127 517, 523.059 517 C 521.991 517, 520.840 516.550, 520.500 516 C 520.149 515.433, 520.990 515, 522.441 515 C 524.049 515, 525 514.443, 525 513.500 C 525 512.238, 522.778 512, 511 512 C 497.827 512, 497 512.114, 497 513.934 M 401.763 515.966 C 375.837 520.699, 361 538.210, 361 564.076 C 361 593.283, 382.849 614.405, 413 614.346 C 444.128 614.285, 471.434 593.658, 481.921 562.282 C 485.326 552.096, 485.065 551.192, 476.384 543.085 C 467.940 535.199, 455.284 526.393, 446.838 522.526 C 434.637 516.940, 413.375 513.846, 401.763 515.966 M 596.500 515.646 C 588.893 516.871, 580.828 519.454, 573.264 523.088 C 564.143 527.469, 548.170 539.091, 540.588 546.863 L 535.676 551.898 537.469 558.523 C 545.781 589.230, 572.472 612.156, 602.720 614.569 C 633.136 616.995, 660 593.797, 660 565.105 C 660 543.586, 646.301 523.917, 627.155 517.946 C 620.542 515.884, 603.132 514.578, 596.500 515.646 M 500.750 521.728 C 497.840 522.033, 497 522.555, 497 524.060 C 497 525.888, 497.812 526, 511 526 C 524.070 526, 525 525.874, 525 524.107 C 525 523.066, 524.288 521.941, 523.418 521.607 C 521.766 520.973, 507.227 521.051, 500.750 521.728 M 497 529 C 497 530.905, 497.667 531, 511 531 C 524.333 531, 525 530.905, 525 529 C 525 527.095, 524.333 527, 511 527 C 497.667 527, 497 527.095, 497 529 M 421.807 529.498 C 412.734 532.833, 407.134 540.158, 406.325 549.750 C 405.098 564.301, 419.487 577.110, 433.768 574.179 C 444.957 571.883, 453.341 561.971, 453.325 551.058 C 453.301 535.245, 436.829 523.977, 421.807 529.498 M 581.500 530.387 C 562.402 539.431, 562.330 562.753, 581.370 572.709 C 585.344 574.788, 595.309 574.829, 600 572.788 C 608.501 569.088, 614.462 559.966, 614.300 550.906 C 613.999 534.164, 596.561 523.255, 581.500 530.387 M 497 534 C 497 535.905, 497.667 536, 511 536 C 524.333 536, 525 535.905, 525 534 C 525 532.095, 524.333 532, 511 532 C 497.667 532, 497 532.095, 497 534 M 586.913 534.013 C 574.708 536.120, 568.767 550.856, 576.062 560.926 C 579.494 565.665, 585.617 568.956, 591 568.956 C 597.891 568.956, 605.609 563.819, 607.933 557.685 C 609.436 553.719, 609.258 547.400, 607.551 544.099 C 605.577 540.282, 599.559 535.154, 596.232 534.454 C 591.330 533.423, 590.545 533.386, 586.913 534.013 M 420.292 536.664 C 414.983 540.106, 412 545.420, 412 551.436 C 412 558.895, 415.833 564.361, 423.232 567.452 C 436.117 572.836, 450.161 561.331, 447.569 547.514 C 446.816 543.502, 442.105 537.623, 437.901 535.449 C 433.198 533.017, 425.049 533.579, 420.292 536.664 M 497 538.955 C 497 541.561, 501.180 542.295, 513.471 541.849 C 520.567 541.591, 523.312 541.115, 523.985 540.026 C 525.521 537.538, 523.124 537.031, 509.750 537.015 C 497.760 537.001, 497 537.117, 497 538.955 M 497 545 C 497 546.882, 497.662 546.999, 508.250 546.986 C 520.737 546.971, 524 546.432, 524 544.383 C 524 543.274, 521.327 543, 510.500 543 C 497.667 543, 497 543.099, 497 545 M 498 550 C 498 551.887, 498.667 552, 509.800 552 C 520.999 552, 524 551.324, 524 548.800 C 524 548.360, 518.150 548, 511 548 C 498.667 548, 498 548.103, 498 550 M 499.250 553.662 C 497.178 554.498, 497.844 556.839, 500.250 557.180 C 501.488 557.356, 507.113 557.359, 512.750 557.186 C 522.112 556.899, 523 556.704, 523 554.936 C 523 553.131, 522.236 553.005, 511.750 553.079 C 505.563 553.122, 499.938 553.385, 499.250 553.662 M 501.750 558.792 C 497.025 559.206, 496.690 561.677, 501.250 562.486 C 503.038 562.803, 508.545 562.711, 513.488 562.281 C 520.990 561.629, 522.533 561.202, 522.822 559.698 C 523.136 558.054, 522.387 557.920, 514.333 558.179 C 509.475 558.335, 503.813 558.611, 501.750 558.792 M 505.186 563.742 C 499.884 564.042, 498.926 564.371, 499.205 565.799 C 499.495 567.277, 500.980 567.500, 510.519 567.500 C 521.145 567.500, 521.510 567.427, 521.820 565.250 C 522.169 562.791, 522.113 562.786, 505.186 563.742 M 499.736 569.598 C 498.137 571.196, 500.523 573.008, 504.357 573.107 L 508.500 573.214 504.250 574.166 C 499.376 575.258, 498.758 577.123, 502.750 578.701 L 505.500 579.787 502.838 579.894 C 500.342 579.993, 499.528 581.861, 501.235 583.569 C 501.580 583.914, 501.638 584.779, 501.365 585.492 C 501.071 586.257, 502.022 587.210, 503.683 587.816 C 506.199 588.732, 506.260 588.851, 504.250 588.921 C 501.037 589.034, 501.446 591.783, 504.750 592.284 L 507.500 592.700 504.750 592.850 C 501.778 593.012, 500.864 594.990, 503.750 595.015 C 504.782 595.024, 505.070 595.332, 504.452 595.765 C 503.876 596.169, 503.341 597.513, 503.264 598.750 C 503.161 600.409, 503.699 601.030, 505.312 601.116 C 507.140 601.213, 507.197 601.310, 505.657 601.707 C 504.326 602.050, 503.975 602.782, 504.394 604.341 C 504.712 605.529, 504.979 606.805, 504.986 607.177 C 504.994 607.549, 505.788 608.059, 506.750 608.311 C 508.329 608.723, 508.319 608.779, 506.643 608.884 C 505.294 608.968, 504.975 609.479, 505.478 610.750 C 505.859 611.712, 506.416 613.962, 506.716 615.750 C 507.016 617.538, 507.653 619, 508.131 619 C 508.609 619, 508.947 619.337, 508.882 619.750 C 508.553 621.833, 509.109 624, 509.972 624 C 511.090 624, 514.444 613.610, 514.411 610.250 C 514.399 609.013, 514.751 608, 515.194 608 C 516.743 608, 515.984 606.143, 514.250 605.689 C 512.748 605.297, 512.733 605.216, 514.143 605.116 C 516.046 604.982, 517.543 602.008, 515.719 601.985 C 514.879 601.974, 514.838 601.741, 515.588 601.235 C 517.194 600.150, 518.038 596.003, 516.656 595.985 C 516.006 595.976, 516.157 595.538, 517 594.985 C 518.228 594.179, 518.258 593.844, 517.166 593.139 C 516.091 592.445, 516.139 592.161, 517.416 591.671 C 520.462 590.502, 519.162 588.138, 515.250 587.728 L 511.500 587.336 515.250 587.168 C 520.713 586.923, 520.321 584.234, 514.750 583.732 L 510.500 583.349 515.250 583.175 C 519.275 583.027, 520 582.695, 520 581 C 520 579.251, 519.277 578.979, 514.250 578.832 L 508.500 578.664 514.500 578.082 C 518.908 577.654, 520.500 577.102, 520.500 576 C 520.500 574.898, 518.908 574.346, 514.500 573.918 L 508.500 573.336 514.750 573.168 C 520.277 573.019, 521 572.769, 521 571 C 521 569.129, 520.333 569, 510.667 569 C 504.983 569, 500.064 569.269, 499.736 569.598" stroke="none" fill="#c99d76" fill-rule="evenodd"/></svg>